<?xml version="1.0" encoding="UTF-8" standalone="no"?>
<svg width="300" height="500" viewBox="0 0 300 500" fill="none" version="1.1" id="svg70" sodipodi:docname="nft16.svg"
    inkscape:version="1.3.2 (091e20ef0f, 2023-11-25)" xmlns:inkscape="http://www.inkscape.org/namespaces/inkscape"
    xmlns:sodipodi="http://sodipodi.sourceforge.net/DTD/sodipodi-0.dtd" xmlns="http://www.w3.org/2000/svg"
    xmlns:svg="http://www.w3.org/2000/svg">
    <sodipodi:namedview id="namedview70" pagecolor="#ffffff" bordercolor="#000000" borderopacity="0.25"
        inkscape:showpageshadow="2" inkscape:pageopacity="0.0" inkscape:pagecheckerboard="0"
        inkscape:deskcolor="#d1d1d1" inkscape:zoom="2.536" inkscape:cx="198.54101" inkscape:cy="358.63565"
        inkscape:window-width="1920" inkscape:window-height="1080" inkscape:window-x="0" inkscape:window-y="0"
        inkscape:window-maximized="1" inkscape:current-layer="g65" />
    <g clip-path="url(#clip0_571_520)" id="g65">
        <rect width="300" height="500" rx="30" fill="#0D111C" id="rect1" />
        <rect width="300" height="500" fill="url(#paint0_linear_571_520)" id="rect2" />
        <path
            d="M92.6931 52.6906C93.7198 53.7016 94.2332 55.1933 94.2332 57.1657C94.2332 59.138 93.7198 60.638 92.6931 61.6656C91.6829 62.6767 90.2505 63.1822 88.3958 63.1822H84.9928V68.8507H81.54V51.1492H88.3958C90.2505 51.1492 91.6829 51.663 92.6931 52.6906ZM90.7804 57.1657C90.7804 55.2099 89.9276 54.232 88.2219 54.232H84.9928V60.0745H88.2219C89.0499 60.0745 89.6792 59.8507 90.1098 59.4032C90.5569 58.9557 90.7804 58.2099 90.7804 57.1657Z"
            fill="white" id="path2" />
        <path
            d="M108.042 68.8507H101.783C99.7955 68.8507 98.3962 68.5109 97.5848 67.8313C96.7899 67.1352 96.3925 65.917 96.3925 64.1767V51.1492L108.042 51.1492V54.232L99.8452 54.232V58.3839H105.583L105.335 61.4668H99.8452V63.9281C99.8452 64.6242 100.003 65.1048 100.317 65.37C100.632 65.6352 101.203 65.7678 102.031 65.7678H108.042V68.8507Z"
            fill="white" id="path3" />
        <path
            d="M124.076 68.8507H120.076L116.624 62.2872H114.14V68.8507H110.687V54.953C110.687 53.627 110.993 52.6657 111.606 52.0691C112.219 51.4558 113.245 51.1492 114.686 51.1492H117.617C119.373 51.1492 120.764 51.6878 121.79 52.7652C122.834 53.8259 123.355 55.1768 123.355 56.8176C123.355 58.011 123.041 59.0469 122.411 59.9253C121.799 60.7872 121.037 61.3839 120.126 61.7154L124.076 68.8507ZM117.394 59.4032C118.122 59.4032 118.719 59.1546 119.182 58.6574C119.662 58.1436 119.903 57.5138 119.903 56.7679C119.903 56.0055 119.671 55.3922 119.207 54.9281C118.76 54.4641 118.155 54.232 117.394 54.232H115.68C114.653 54.232 114.14 54.7541 114.14 55.7983V59.4032H117.394Z"
            fill="white" id="path4" />
        <path
            d="M137.844 54.232H131.609C130.881 54.232 130.367 54.3729 130.069 54.6547C129.788 54.9364 129.647 55.4254 129.647 56.1215V58.5828H136.13L135.882 61.6656H129.647V68.8507H126.194V54.7541C126.194 53.4447 126.476 52.5166 127.039 51.9696C127.619 51.4226 128.604 51.1492 129.995 51.1492H137.844V54.232Z"
            fill="white" id="path5" />
        <path
            d="M151.751 68.8507H145.491C143.504 68.8507 142.104 68.5109 141.293 67.8313C140.498 67.1352 140.101 65.917 140.101 64.1767V51.1492L151.751 51.1492V54.232L143.553 54.232V58.3839L149.291 58.3839L149.043 61.4668H143.553V63.9281C143.553 64.6242 143.711 65.1048 144.025 65.37C144.34 65.6352 144.911 65.7678 145.739 65.7678H151.751V68.8507Z"
            fill="white" id="path6" />
        <path
            d="M163.338 61.9888H166.542C166.542 64.243 165.979 65.975 164.853 67.1849C163.727 68.3949 162.137 68.9998 160.084 68.9998C155.563 68.9998 153.302 66.3396 153.302 61.0192V59.5275C153.302 55.3342 154.462 52.7072 156.78 51.6464C157.691 51.2155 158.792 51 160.084 51C161.971 51 163.503 51.5221 164.679 52.5663C165.871 53.5939 166.467 55.0856 166.467 57.0414H163.238C163.056 56.0635 162.733 55.3259 162.269 54.8287C161.806 54.3315 161.077 54.0828 160.084 54.0828C158.924 54.0828 158.063 54.4475 157.5 55.1768C157.103 55.6906 156.871 56.569 156.805 57.8121C156.772 58.2099 156.755 58.7485 156.755 59.4281V60.9695C156.755 62.8756 157.02 64.1767 157.55 64.8728C158.096 65.5689 158.941 65.917 160.084 65.917C161.243 65.917 162.038 65.6021 162.468 64.9722C162.915 64.3258 163.205 63.3314 163.338 61.9888Z"
            fill="white" id="path7" />
        <path d="M180.239 54.232H175.495V68.8507H172.042V54.232H167.322V51.1492H180.239V54.232Z" fill="white"
            id="path8" />
        <path
            d="M198.365 52.6906C199.392 53.7016 199.905 55.1933 199.905 57.1657C199.905 59.138 199.392 60.638 198.365 61.6656C197.355 62.6767 195.922 63.1822 194.068 63.1822H190.665V68.8507H187.212V51.1492L194.068 51.1492C195.922 51.1492 197.355 51.663 198.365 52.6906ZM196.452 57.1657C196.452 55.2099 195.599 54.232 193.894 54.232L190.665 54.232V60.0745H193.894C194.722 60.0745 195.351 59.8507 195.782 59.4032C196.229 58.9557 196.452 58.2099 196.452 57.1657Z"
            fill="white" id="path9" />
        <path
            d="M215.031 59.1795V60.522C215.031 63.4888 214.468 65.6435 213.342 66.986C212.232 68.3286 210.444 68.9998 207.976 68.9998C205.509 68.9998 203.72 68.3286 202.611 66.986C201.518 65.6435 200.971 63.464 200.971 60.4474V59.1546C200.971 56.4033 201.526 54.3563 202.636 53.0138C203.762 51.6713 205.534 51 207.951 51C210.386 51 212.174 51.6796 213.317 53.0387C214.459 54.3978 215.031 56.4447 215.031 59.1795ZM211.578 60.4474V59.5275C211.578 57.9364 211.379 56.6685 210.982 55.7237C210.518 54.6298 209.525 54.0828 208.001 54.0828C206.461 54.0828 205.459 54.6298 204.995 55.7237C204.615 56.6187 204.424 57.8867 204.424 59.5275V60.4474C204.424 62.5855 204.722 64.0275 205.318 64.7734C205.55 65.0883 205.89 65.3617 206.337 65.5938C206.8 65.8093 207.347 65.917 207.976 65.917C208.622 65.917 209.169 65.8093 209.616 65.5938C210.063 65.3783 210.41 65.1131 210.659 64.7982C210.907 64.4833 211.098 64.0689 211.23 63.5551C211.462 62.743 211.578 61.7071 211.578 60.4474Z"
            fill="white" id="path10" />
        <path
            d="M230.271 59.1795V60.522C230.271 63.4888 229.708 65.6435 228.582 66.986C227.473 68.3286 225.684 68.9998 223.217 68.9998C220.749 68.9998 218.961 68.3286 217.851 66.986C216.758 65.6435 216.212 63.464 216.212 60.4474V59.1546C216.212 56.4033 216.767 54.3563 217.876 53.0138C219.002 51.6713 220.774 51 223.192 51C225.626 51 227.415 51.6796 228.557 53.0387C229.7 54.3978 230.271 56.4447 230.271 59.1795ZM226.819 60.4474V59.5275C226.819 57.9364 226.62 56.6685 226.222 55.7237C225.759 54.6298 224.765 54.0828 223.242 54.0828C221.702 54.0828 220.7 54.6298 220.236 55.7237C219.855 56.6187 219.665 57.8867 219.665 59.5275V60.4474C219.665 62.5855 219.963 64.0275 220.559 64.7734C220.791 65.0883 221.13 65.3617 221.577 65.5938C222.041 65.8093 222.587 65.917 223.217 65.917C223.863 65.917 224.409 65.8093 224.856 65.5938C225.303 65.3783 225.651 65.1131 225.899 64.7982C226.148 64.4833 226.338 64.0689 226.471 63.5551C226.703 62.743 226.819 61.7071 226.819 60.4474Z"
            fill="white" id="path11" />
        <path
            d="M243.45 68.8507H238.184C236.197 68.8507 234.756 68.4695 233.862 67.707C232.984 66.928 232.545 65.6684 232.545 63.9281V51.1492H235.998V63.9281C235.998 64.6242 236.155 65.1048 236.47 65.37C236.785 65.6352 237.356 65.7678 238.184 65.7678H243.45V68.8507Z"
            fill="white" id="path12" />
        <path
            d="M73.821 51.0879H71.468C70.7419 51.0879 70.1533 51.6521 70.1533 52.3482V54.6041C70.1533 55.3001 70.7419 55.8644 71.468 55.8644H73.821C74.5471 55.8644 75.1357 55.3001 75.1357 54.6041V52.3482C75.1357 51.6521 74.5471 51.0879 73.821 51.0879Z"
            fill="#4C82FB" id="path13" />
        <path
            d="M64.7157 56.0649H66.7606C67.6068 56.1121 68.4118 56.4394 69.0441 56.9934L69.1208 57.0771C69.6881 57.696 70.0219 58.4873 70.0666 59.3188V61.318C70.0666 61.6662 70.2076 62.0003 70.4584 62.2466C70.7093 62.4929 71.0496 62.6312 71.4044 62.6312H73.7987C74.1534 62.6312 74.4937 62.4929 74.7446 62.2466C74.9955 62.0003 75.1364 61.6662 75.1364 61.318V58.9675C75.1364 58.6192 74.9955 58.2852 74.7446 58.0389C74.4937 57.7926 74.1534 57.6542 73.7987 57.6542H71.7622C70.9153 57.6103 70.1092 57.2826 69.4787 56.7257L69.3935 56.6504C68.828 56.0303 68.4945 55.2397 68.4477 54.4087V52.4011C68.4477 52.0529 68.3068 51.7188 68.0559 51.4725C67.805 51.2263 67.4648 51.0879 67.11 51.0879H64.7157C64.3609 51.0879 64.0206 51.2263 63.7698 51.4725C63.5189 51.7188 63.3779 52.0529 63.3779 52.4011V54.7517C63.3779 55.0999 63.5189 55.434 63.7698 55.6802C64.0206 55.9265 64.3609 56.0649 64.7157 56.0649Z"
            fill="#1DB954" id="path14" />
        <path
            d="M74.0196 64.1279H72.0212C71.1894 64.076 70.4012 63.7439 69.7897 63.1879L69.5649 62.9672C69.0106 62.3623 68.6843 61.589 68.6406 60.7764V58.8146C68.6384 58.4749 68.5 58.1497 68.2553 57.9095C68.0106 57.6693 67.6794 57.5334 67.3333 57.5313H65.3349C64.5099 57.4972 63.722 57.1854 63.1034 56.6484L62.8786 56.4277C62.3243 55.8228 61.998 55.0496 61.9543 54.237V52.2834C61.9543 51.943 61.8166 51.6166 61.5715 51.3759C61.3263 51.1352 60.9938 51 60.6471 51H58.3073C57.9606 51 57.628 51.1352 57.3829 51.3759C57.1377 51.6166 57 51.943 57 52.2834V54.5803C57 54.9207 57.1377 55.2472 57.3829 55.4878C57.628 55.7285 57.9606 55.8637 58.3073 55.8637H60.2973C61.1377 55.9014 61.9384 56.2251 62.5622 56.7792L62.787 56.9999C63.3396 57.6059 63.6656 58.3785 63.7113 59.1906V61.1525C63.7134 61.4922 63.8519 61.8174 64.0966 62.0576C64.3412 62.2978 64.6725 62.4337 65.0185 62.4358H67.0169C67.8355 62.4861 68.6128 62.8058 69.2235 63.3432L69.4483 63.5639C70.0009 64.1699 70.3269 64.9425 70.3726 65.7546V67.7164C70.3747 68.0562 70.5132 68.3813 70.7579 68.6215C71.0026 68.8618 71.3338 68.9976 71.6798 68.9998H74.0279C74.374 68.9976 74.7053 68.8618 74.9499 68.6215C75.1946 68.3813 75.3331 68.0562 75.3352 67.7164V65.4113C75.333 65.0702 75.1935 64.7437 74.947 64.5033C74.7005 64.2628 74.3671 64.1279 74.0196 64.1279Z"
            fill="#4C82FB" id="path15" />
        <path
            d="M60.8144 64.2233H58.3673C57.6121 64.2233 57 64.7876 57 65.4837V67.7395C57 68.4356 57.6121 68.9998 58.3673 68.9998H60.8144C61.5696 68.9998 62.1817 68.4356 62.1817 67.7395V65.4837C62.1817 64.7876 61.5696 64.2233 60.8144 64.2233Z"
            fill="#4C82FB" id="path16" />
        <path
            d="M67.2441 64.023H65.2422C64.4096 63.9791 63.6172 63.6514 62.9973 63.0945L62.9136 63.0192C62.3542 62.3947 62.026 61.5976 61.9838 60.7607V58.7532C61.9797 58.4149 61.845 58.0913 61.6078 57.8498C61.3706 57.6083 61.0493 57.4674 60.7106 57.4567H58.3151C57.9663 57.4567 57.6318 57.595 57.3852 57.8413C57.1386 58.0876 57 58.4216 57 58.7699V61.1204C57 61.4687 57.1386 61.8027 57.3852 62.0491C57.6318 62.2953 57.9663 62.4337 58.3151 62.4337H60.3254C61.1572 62.4809 61.9485 62.8082 62.5702 63.3622L62.6456 63.4458C63.2032 64.0648 63.5314 64.8561 63.5753 65.6876V67.6867C63.5753 67.8599 63.6096 68.0313 63.6762 68.1912C63.7428 68.3511 63.8405 68.4962 63.9635 68.6183C64.0864 68.7404 64.2324 68.8369 64.3929 68.9024C64.5535 68.9679 64.7254 69.0011 64.8988 69H67.2441C67.5929 69 67.9274 68.8616 68.174 68.6154C68.4206 68.3691 68.5592 68.035 68.5592 67.6867V65.3362C68.5592 64.988 68.4206 64.6539 68.174 64.4076C67.9274 64.1613 67.5929 64.023 67.2441 64.023Z"
            fill="#1DB954" id="path17" />
        <rect x="38.5" y="299.5" width="223" height="55" rx="9.5" fill="#0D111C" id="rect17" />
        <rect x="38.5" y="360.5" width="223" height="55" rx="9.5" fill="#0D111C" id="rect18" />
        <rect x="38.5" y="84.5" width="223" height="125" rx="9.5" fill="#0D111C" id="rect19" />
        <rect x="38.5" y="215.5" width="223" height="78" rx="9.5" fill="#0D111C" id="rect20" />
        <rect x="38.5" y="84.5" width="223" height="125" rx="9.5" stroke="#1C253C" id="rect21" />
        <rect x="38.5" y="360.5" width="223" height="55" rx="9.5" stroke="#1C253C" id="rect22" />
        <rect x="38.5" y="299.5" width="223" height="55" rx="9.5" stroke="#1C253C" id="rect23" />
        <rect x="38.5" y="215.5" width="223" height="78" rx="9.5" stroke="#1C253C" id="rect24" />
        <rect x="16" y="17" width="267" height="438" rx="29" stroke="#1C253C" stroke-width="2" id="rect25" />
        <rect x="90.5" y="440.5" width="120" height="31" rx="4.5" fill="#1B2236" stroke="#1C253C" id="rect26" />

        
        <rect x="48.5" y="109.5" width="100" height="21" rx="4.5" fill="#1B2236" stroke="#1C253C" id="rect27" />
        <rect x="48.5" y="133.5" width="100" height="20" rx="4.5" fill="#1B2236" stroke="#1C253C" id="rect28" />
        <rect x="48.5" y="156.5" width="100" height="20" rx="4.5" fill="#1B2236" stroke="#1C253C" id="rect29" />
        <rect x="48.5" y="179.5" width="100" height="21" rx="4.5" fill="#1B2236" stroke="#1C253C" id="rect30" />
        <rect x="151.5" y="109.5" width="100" height="21" rx="4.5" fill="#1B2236" stroke="#1C253C" id="rect31" />
        <rect x="151.5" y="133.5" width="100" height="20" rx="4.5" fill="#1B2236" stroke="#1C253C" id="rect32" />
        <rect x="151.5" y="156.5" width="100" height="20" rx="4.5" fill="#1B2236" stroke="#1C253C" id="rect33" />
        <rect x="151.5" y="179.5" width="100" height="21" rx="4.5" fill="#1B2236" stroke="#1C253C" id="rect34" />

        <rect x="48.5" y="240.5" width="100" height="21" rx="4.5" fill="#1B2236" stroke="#1C253C" id="rect35" />
        <rect x="48.5" y="264.5" width="100" height="20" rx="4.5" fill="#1B2236" stroke="#1C253C" id="rect36" />
        <rect x="151.5" y="240.5" width="100" height="21" rx="4.5" fill="#1B2236" stroke="#1C253C" id="rect37" />
        <rect x="151.5" y="264.5" width="100" height="20" rx="4.5" fill="#1B2236" stroke="#1C253C" id="rect38" />
        
        <rect x="48.5" y="324.5" width="100" height="21" rx="4.5" fill="#1B2236" stroke="#1C253C" id="rect39" />
        <rect x="151.5" y="324.5" width="100" height="21" rx="4.5" fill="#1B2236" stroke="#1C253C" id="rect40" />
        <rect x="48.5" y="385.5" width="100" height="21" rx="4.5" fill="#1B2236" stroke="#1C253C" id="rect41" />
        <text style="font-size:12px;fill:#98A1C0;font-family:arial" x="58" y="124" id="text41">Bet 1:</text>
        <text style="font-size:12px;fill:#98A1C0;font-family:arial" x="58" y="148" id="text42">Bet 2:</text>
        <text style="font-size:12px;fill:#98A1C0;font-family:arial" x="58" y="171" id="text43">Bet 3:</text>
        <text style="font-size:12px;fill:#98A1C0;font-family:arial" x="58" y="194" id="text44">Bet 4:</text>
        <text style="font-size:12px;fill:#98A1C0;font-family:arial" x="161" y="124" id="text45">Bet 5:</text>
        <text style="font-size:12px;fill:#98A1C0;font-family:arial" x="161" y="148" id="text46">Bet 6:</text>
        <text style="font-size:12px;fill:#98A1C0;font-family:arial" x="161" y="171" id="text47">Bet 7:</text>
        <text style="font-size:12px;fill:#98A1C0;font-family:arial" x="161" y="194" id="text48">Bet 8:</text>
        <text style="font-size:12px;fill:#98A1C0;font-family:arial" x="58" y="255" id="text49">Bet 1:</text>
        <text style="font-size:12px;fill:#98A1C0;font-family:arial" x="58" y="279" id="text50">Bet 2:</text>
        <text style="font-size:12px;fill:#98A1C0;font-family:arial" x="161" y="255" id="text51">Bet 3:</text>
        <text style="font-size:12px;fill:#98A1C0;font-family:arial" x="161" y="279" id="text52">Bet 4:</text>
        <text style="font-size:12px;fill:#98A1C0;font-family:arial" x="58" y="339" id="text53">Bet 1:</text>
        <text style="font-size:12px;fill:#98A1C0;font-family:arial" x="161" y="339" id="text54">Bet 2:</text>
        <text style="font-size:12px;fill:#98A1C0;font-family:arial" x="58" y="400" id="text55">Bet 1:</text>
        <text style="font-size:15.3px;fill:#98A1C0;font-family:arial" x="99" y="461" id="text56">NFT ID:</text>
        <text style="font-size:12px;fill:#fff;font-family:arial;font-weight:700" x="48" y="103" id="text58">Round
            1</text>
        <text style="font-size:12px;fill:#fff;font-family:arial;font-weight:700" x="48" y="234" id="text59">Round
            2</text>
        <text style="font-size:12px;fill:#fff;font-family:arial;font-weight:700" x="48" y="318" id="text60">Round
            3</text>
        <text style="font-size:12px;fill:#fff;font-family:arial;font-weight:700" x="48" y="379" id="text61">Final
            Round</text>

        <text style="font-size:20px;font-family:arial;font-weight:750;fill:url(#paint1_linear_571_520)" x="50%" y="35"
            text-anchor="middle" id="text57">Game
            #1109</text>

        <text style="font-size:11px;fill:#fff;font-family:arial" x="92" y="124" id="text62">MATIC</text>
        <circle cx="139" cy="120" r="3" fill="#7ED321" id="circle62" />

        <text style="font-size:15.3px;fill:#fff;font-family:arial;font-weight:400" x="156" y="461" id="text62">29203</text>

        <g filter="url(#filter0_d_571_520)" id="g62">
            <path
                d="M215.977 371L212.212 374.929L197.043 390.098L192.623 385.842L188.694 381.913L181 389.607L184.929 393.536L193.114 401.721L196.879 405.65L200.808 401.721L219.906 382.623L223.835 378.694L215.977 371Z"
                fill="#1DB954" id="path62" />
        </g>
        <g filter="url(#filter0_d_575_1231)" id="g63" transform="translate(0,60)">
            <path
                d="m 189.825,308 -6.825,6.825 3.485,3.486 8.617,8.762 -8.617,8.616 -3.485,3.34 6.825,6.971 3.486,-3.485 8.762,-8.762 8.616,8.762 3.34,3.485 6.971,-6.971 -3.485,-3.34 -8.762,-8.616 8.762,-8.762 3.485,-3.486 -6.971,-6.825 -3.34,3.485 -8.616,8.617 -8.762,-8.617 z"
                fill="#ff2e47" id="path63" />
        </g>
    </g>

    <defs id="defs70">
        <filter id="filter0_d_571_520" x="177" y="371" width="50.835" height="42.6497" filterUnits="userSpaceOnUse"
            color-interpolation-filters="sRGB">
            <feFlood flood-opacity="0" result="BackgroundImageFix" id="feFlood65" />
            <feColorMatrix in="SourceAlpha" type="matrix" values="0 0 0 0 0 0 0 0 0 0 0 0 0 0 0 0 0 0 127 0"
                result="hardAlpha" id="feColorMatrix65" />
            <feOffset dy="4" id="feOffset65" />
            <feGaussianBlur stdDeviation="2" id="feGaussianBlur65" />
            <feComposite in2="hardAlpha" operator="out" id="feComposite65" />
            <feColorMatrix type="matrix" values="0 0 0 0 0 0 0 0 0 0 0 0 0 0 0 0 0 0 0.5 0" id="feColorMatrix66" />
            <feBlend mode="normal" in2="BackgroundImageFix" result="effect1_dropShadow_571_520" id="feBlend66" />
            <feBlend mode="normal" in="SourceGraphic" in2="effect1_dropShadow_571_520" result="shape" id="feBlend67" />
        </filter>
        <linearGradient id="paint0_linear_571_520" x1="150" y1="0" x2="150" y2="500" gradientUnits="userSpaceOnUse">
            <stop stop-color="#202738" id="stop67" />
            <stop offset="1" stop-color="#070816" id="stop68" />
        </linearGradient>
        <linearGradient id="paint1_linear_571_520" x1="108" y1="37" x2="109.881" y2="12.5935"
            gradientUnits="userSpaceOnUse">
            <stop offset="0.1" stop-color="#1DB954" id="stop69" />
            <stop offset="1" stop-color="#0062FF" id="stop70" />
        </linearGradient>
        <clipPath id="clip0_571_520">
            <rect width="300" height="500" rx="30" fill="white" id="rect70" />
        </clipPath>
    </defs>
</svg>