<svg width="300" height="500" fill="none" xmlns="http://www.w3.org/2000/svg">
    <g clip-path="url(#prefix__clip0_571_520)">
        <rect width="300" height="500" rx="30" fill="#0D111C" />
        <path fill="url(#prefix__paint0_linear_571_520)" d="M0 0h300v500H0z" />
        <path
            d="M92.693 52.69c1.027 1.012 1.54 2.503 1.54 4.476 0 1.972-.513 3.472-1.54 4.5-1.01 1.01-2.442 1.516-4.297 1.516h-3.403v5.669H81.54V51.149h6.856c1.855 0 3.287.514 4.297 1.542zm-1.913 4.476c0-1.956-.852-2.934-2.558-2.934h-3.23v5.843h3.23c.828 0 1.457-.224 1.888-.672.447-.447.67-1.193.67-2.237zM108.042 68.85h-6.259c-1.987 0-3.387-.34-4.198-1.019-.795-.696-1.192-1.914-1.192-3.654V51.149h11.649v3.083h-8.197v4.152h5.738l-.248 3.083h-5.49v2.461c0 .696.158 1.177.472 1.442.315.265.886.398 1.714.398h6.011v3.083zM124.076 68.85h-4l-3.452-6.563h-2.484v6.564h-3.453V54.953c0-1.326.306-2.287.919-2.884.613-.613 1.639-.92 3.08-.92h2.931c1.756 0 3.147.539 4.173 1.616 1.044 1.06 1.565 2.412 1.565 4.053 0 1.193-.314 2.229-.944 3.107-.612.862-1.374 1.459-2.285 1.79l3.95 7.136zm-6.682-9.447c.728 0 1.325-.248 1.788-.746.48-.513.721-1.143.721-1.89 0-.762-.232-1.375-.696-1.839-.447-.464-1.052-.696-1.813-.696h-1.714c-1.027 0-1.54.522-1.54 1.566v3.605h3.254zM137.844 54.232h-6.235c-.728 0-1.242.14-1.54.423-.281.281-.422.77-.422 1.466v2.462h6.483l-.248 3.083h-6.235v7.185h-3.453V54.754c0-1.31.282-2.237.845-2.784.58-.547 1.565-.82 2.956-.82h7.849v3.082zM151.751 68.85h-6.26c-1.987 0-3.387-.34-4.198-1.019-.795-.696-1.192-1.914-1.192-3.654V51.149h11.65v3.083h-8.198v4.152h5.738l-.248 3.083h-5.49v2.461c0 .696.158 1.177.472 1.442.315.265.886.398 1.714.398h6.012v3.083zM163.338 61.989h3.204c0 2.254-.563 3.986-1.689 5.196-1.126 1.21-2.716 1.815-4.769 1.815-4.521 0-6.782-2.66-6.782-7.98v-1.492c0-4.194 1.16-6.82 3.478-7.882.911-.43 2.012-.646 3.304-.646 1.887 0 3.419.522 4.595 1.566 1.192 1.028 1.788 2.52 1.788 4.475h-3.229c-.182-.977-.505-1.715-.969-2.212-.463-.498-1.192-.746-2.185-.746-1.16 0-2.021.364-2.584 1.094-.397.514-.629 1.392-.695 2.635-.033.398-.05.937-.05 1.616v1.541c0 1.907.265 3.208.795 3.904.546.696 1.391 1.044 2.534 1.044 1.159 0 1.954-.315 2.384-.945.447-.646.737-1.64.87-2.983zM180.239 54.232h-4.744v14.619h-3.453V54.232h-4.72v-3.083h12.917v3.083zM198.365 52.69c1.027 1.012 1.54 2.503 1.54 4.476 0 1.972-.513 3.472-1.54 4.5-1.01 1.01-2.443 1.516-4.297 1.516h-3.403v5.669h-3.453V51.149h6.856c1.854 0 3.287.514 4.297 1.542zm-1.913 4.476c0-1.956-.853-2.934-2.558-2.934h-3.229v5.843h3.229c.828 0 1.457-.224 1.888-.672.447-.447.67-1.193.67-2.237zM215.031 59.18v1.342c0 2.967-.563 5.122-1.689 6.464-1.11 1.343-2.898 2.014-5.366 2.014-2.467 0-4.256-.671-5.365-2.014-1.093-1.343-1.64-3.522-1.64-6.539v-1.292c0-2.752.555-4.799 1.665-6.141 1.126-1.343 2.898-2.014 5.315-2.014 2.435 0 4.223.68 5.366 2.039 1.142 1.359 1.714 3.406 1.714 6.14zm-3.453 1.267v-.92c0-1.59-.199-2.858-.596-3.803-.464-1.094-1.457-1.641-2.981-1.641-1.54 0-2.542.547-3.006 1.64-.38.896-.571 2.164-.571 3.805v.92c0 2.138.298 3.58.894 4.325.232.315.572.589 1.019.82.463.216 1.01.324 1.639.324.646 0 1.193-.108 1.64-.323.447-.216.794-.48 1.043-.796.248-.315.439-.73.571-1.243.232-.812.348-1.848.348-3.108zM230.271 59.18v1.342c0 2.967-.563 5.122-1.689 6.464-1.109 1.343-2.898 2.014-5.365 2.014-2.468 0-4.256-.671-5.366-2.014-1.093-1.343-1.639-3.522-1.639-6.539v-1.292c0-2.752.555-4.799 1.664-6.141 1.126-1.343 2.898-2.014 5.316-2.014 2.434 0 4.223.68 5.365 2.039 1.143 1.359 1.714 3.406 1.714 6.14zm-3.452 1.267v-.92c0-1.59-.199-2.858-.597-3.803-.463-1.094-1.457-1.641-2.98-1.641-1.54 0-2.542.547-3.006 1.64-.381.896-.571 2.164-.571 3.805v.92c0 2.138.298 3.58.894 4.325.232.315.571.589 1.018.82.464.216 1.01.324 1.64.324.646 0 1.192-.108 1.639-.323.447-.216.795-.48 1.043-.796.249-.315.439-.73.572-1.243.232-.812.348-1.848.348-3.108zM243.45 68.85h-5.266c-1.987 0-3.428-.38-4.322-1.143-.878-.779-1.317-2.039-1.317-3.779V51.15h3.453v12.78c0 .695.157 1.176.472 1.441.315.265.886.398 1.714.398h5.266v3.083z"
            fill="#fff" />
        <path
            d="M73.821 51.088h-2.353c-.726 0-1.315.564-1.315 1.26v2.256c0 .696.589 1.26 1.315 1.26h2.353c.726 0 1.315-.564 1.315-1.26v-2.256c0-.696-.589-1.26-1.315-1.26z"
            fill="#4C82FB" />
        <path
            d="M64.716 56.065h2.045a3.786 3.786 0 012.283.928l.077.084c.567.619.9 1.41.946 2.242v1.999c0 .348.14.682.391.929.251.246.592.384.946.384H73.8c.354 0 .695-.138.946-.384.25-.247.391-.58.391-.929v-2.35c0-.349-.14-.683-.391-.93a1.35 1.35 0 00-.946-.384h-2.037a3.743 3.743 0 01-2.283-.928l-.085-.076a3.63 3.63 0 01-.946-2.241V52.4c0-.348-.141-.682-.392-.929a1.35 1.35 0 00-.946-.384h-2.394a1.35 1.35 0 00-.946.384c-.251.247-.392.58-.392.93v2.35c0 .348.14.682.392.928.25.246.59.385.946.385z"
            fill="#1DB954" />
        <path
            d="M74.02 64.128H72.02a3.656 3.656 0 01-2.231-.94l-.225-.22a3.523 3.523 0 01-.924-2.192v-1.961a1.28 1.28 0 00-.386-.905 1.328 1.328 0 00-.922-.379h-1.998a3.634 3.634 0 01-2.232-.883l-.224-.22a3.522 3.522 0 01-.925-2.191v-1.954c0-.34-.137-.666-.383-.907a1.32 1.32 0 00-.924-.376h-2.34c-.346 0-.679.135-.924.376-.245.24-.383.567-.383.907v2.297c0 .34.138.667.383.908.245.24.578.376.924.376h1.99c.84.037 1.641.361 2.265.915l.225.22c.553.607.879 1.38.924 2.192v1.962c.002.34.14.664.386.905.244.24.576.376.922.378h1.998c.819.05 1.596.37 2.207.907l.224.22c.553.607.879 1.38.925 2.192v1.961c.002.34.14.665.385.906.245.24.576.376.922.378h2.348c.346-.002.677-.138.922-.379a1.28 1.28 0 00.385-.905v-2.305a1.28 1.28 0 00-.388-.908 1.328 1.328 0 00-.927-.375zM60.814 64.223h-2.447c-.755 0-1.367.565-1.367 1.26v2.257c0 .696.612 1.26 1.367 1.26h2.447c.756 0 1.368-.564 1.368-1.26v-2.256c0-.696-.612-1.26-1.368-1.26z"
            fill="#4C82FB" />
        <path
            d="M67.244 64.023h-2.002a3.646 3.646 0 01-2.245-.928l-.083-.076a3.661 3.661 0 01-.93-2.258v-2.008a1.312 1.312 0 00-1.273-1.296h-2.396A1.316 1.316 0 0057 58.77v2.35a1.313 1.313 0 001.315 1.314h2.01a3.688 3.688 0 012.245.928l.076.084c.557.619.885 1.41.93 2.242v1.999A1.312 1.312 0 0064.898 69h2.345a1.316 1.316 0 001.315-1.313v-2.35a1.313 1.313 0 00-1.315-1.314z"
            fill="#1DB954" />
        <rect x="38.5" y="299.5" width="223" height="55" rx="9.5" fill="#0D111C" />
        <rect x="38.5" y="360.5" width="223" height="55" rx="9.5" fill="#0D111C" />
        <rect x="38.5" y="84.5" width="223" height="125" rx="9.5" fill="#0D111C" />
        <rect x="38.5" y="215.5" width="223" height="78" rx="9.5" fill="#0D111C" />
        <rect x="38.5" y="84.5" width="223" height="125" rx="9.5" stroke="#1C253C" />
        <rect x="38.5" y="360.5" width="223" height="55" rx="9.5" stroke="#1C253C" />
        <rect x="38.5" y="299.5" width="223" height="55" rx="9.5" stroke="#1C253C" />
        <rect x="38.5" y="215.5" width="223" height="78" rx="9.5" stroke="#1C253C" />
        <rect x="16" y="17" width="267" height="438" rx="29" stroke="#1C253C" stroke-width="2" />
        <rect x="90.5" y="440.5" width="120" height="31" rx="4.5" fill="#1B2236" stroke="#1C253C" />
        <rect x="48.5" y="109.5" width="100" height="21" rx="4.5" fill="#1B2236" stroke="#1C253C" />
        <rect x="48.5" y="133.5" width="100" height="20" rx="4.5" fill="#1B2236" stroke="#1C253C" />
        <rect x="48.5" y="156.5" width="100" height="20" rx="4.5" fill="#1B2236" stroke="#1C253C" />
        <rect x="48.5" y="179.5" width="100" height="21" rx="4.5" fill="#1B2236" stroke="#1C253C" />
        <rect x="151.5" y="109.5" width="100" height="21" rx="4.5" fill="#1B2236" stroke="#1C253C" />
        <rect x="151.5" y="133.5" width="100" height="20" rx="4.5" fill="#1B2236" stroke="#1C253C" />
        <rect x="151.5" y="156.5" width="100" height="20" rx="4.5" fill="#1B2236" stroke="#1C253C" />
        <rect x="151.5" y="179.5" width="100" height="21" rx="4.5" fill="#1B2236" stroke="#1C253C" />
        <rect x="48.5" y="240.5" width="100" height="21" rx="4.5" fill="#1B2236" stroke="#1C253C" />
        <rect x="48.5" y="264.5" width="100" height="20" rx="4.5" fill="#1B2236" stroke="#1C253C" />
        <rect x="151.5" y="240.5" width="100" height="21" rx="4.5" fill="#1B2236" stroke="#1C253C" />
        <rect x="151.5" y="264.5" width="100" height="20" rx="4.5" fill="#1B2236" stroke="#1C253C" />
        <rect x="48.5" y="324.5" width="100" height="21" rx="4.5" fill="#1B2236" stroke="#1C253C" />
        <rect x="151.5" y="324.5" width="100" height="21" rx="4.5" fill="#1B2236" stroke="#1C253C" />
        <rect x="48.5" y="385.5" width="100" height="21" rx="4.5" fill="#1B2236" stroke="#1C253C" /><text x="58" y="124"
            font-size="12" fill="#98a1c0" font-family="arial">Bet 1:</text><text x="58" y="148" font-size="12"
            fill="#98a1c0" font-family="arial">Bet 2:</text><text x="58" y="171" font-size="12" fill="#98a1c0"
            font-family="arial">Bet 3:</text><text x="58" y="194" font-size="12" fill="#98a1c0" font-family="arial">Bet
            4:</text><text x="161" y="124" font-size="12" fill="#98a1c0" font-family="arial">Bet 5:</text><text x="161"
            y="148" font-size="12" fill="#98a1c0" font-family="arial">Bet 6:</text><text x="161" y="171" font-size="12"
            fill="#98a1c0" font-family="arial">Bet 7:</text><text x="161" y="194" font-size="12" fill="#98a1c0"
            font-family="arial">Bet 8:</text><text x="58" y="255" font-size="12" fill="#98a1c0" font-family="arial">Bet
            1:</text><text x="58" y="279" font-size="12" fill="#98a1c0" font-family="arial">Bet 2:</text><text x="161"
            y="255" font-size="12" fill="#98a1c0" font-family="arial">Bet 3:</text><text x="161" y="279" font-size="12"
            fill="#98a1c0" font-family="arial">Bet 4:</text><text x="58" y="339" font-size="12" fill="#98a1c0"
            font-family="arial">Bet 1:</text><text x="161" y="339" font-size="12" fill="#98a1c0" font-family="arial">Bet
            2:</text><text x="58" y="400" font-size="12" fill="#98a1c0" font-family="arial">Bet 1:</text><text x="99"
            y="461" font-size="15.3" fill="#98a1c0" font-family="arial">NFT ID:</text><text x="48" y="103"
            font-size="12" fill="#fff" font-family="arial" font-weight="700">Round 1</text><text x="48" y="234"
            font-size="12" fill="#fff" font-family="arial" font-weight="700">Round 2</text><text x="48" y="318"
            font-size="12" fill="#fff" font-family="arial" font-weight="700">Round 3</text><text x="48" y="379"
            font-size="12" fill="#fff" font-family="arial" font-weight="700">Final Round</text><text
            style="font-size:20px;font-family:arial;font-weight:750;fill:url(#paint1_linear_571_520)" x="50%" y="35"
            text-anchor="middle" id="text57">Game #1</text><text
            style="font-size:15.3px;fill:#fff;font-family:arial;font-weight:400" x="156" y="461" id="text62">2</text>
        <circle cx="139" cy="120" r="3" fill="#FF2E47" />
        <circle cx="139" cy="144" r="3" fill="#FF2E47" />
        <circle cx="139" cy="167" r="3" fill="#FF2E47" />
        <circle cx="139" cy="190" r="3" fill="#FF2E47" />
        <circle cx="242" cy="120" r="3" fill="#7ED321" />
        <circle cx="242" cy="144" r="3" fill="#7ED321" />
        <circle cx="242" cy="167" r="3" fill="#FF2E47" />
        <circle cx="242" cy="190" r="3" fill="#7ED321" />
        <circle cx="139" cy="251" r="3" fill="#FF2E47" />
        <circle cx="139" cy="275" r="3" fill="#FF2E47" />
        <circle cx="242" cy="251" r="3" fill="#FF2E47" />
        <circle cx="242" cy="275" r="3" fill="#FF2E47" />
        <circle cx="139" cy="335" r="3" fill="#FF2E47" />
        <circle cx="242" cy="335" r="3" fill="#FF2E47" />
        <circle cx="139" cy="396" r="3" fill="#FF2E47" /><text style="font-size:11px;fill:#fff;font-family:arial" x="92"
            y="124">ADA</text><text style="font-size:11px;fill:#fff;font-family:arial" x="92" y="148">BRETT</text><text
            style="font-size:11px;fill:#fff;font-family:arial" x="92" y="171">XTZ</text><text
            style="font-size:11px;fill:#fff;font-family:arial" x="92" y="194">ENS</text><text
            style="font-size:11px;fill:#fff;font-family:arial" x="194" y="124">MNT</text><text
            style="font-size:11px;fill:#fff;font-family:arial" x="194" y="148">PAXG</text><text
            style="font-size:11px;fill:#fff;font-family:arial" x="194" y="171">IOTX</text><text
            style="font-size:11px;fill:#fff;font-family:arial" x="194" y="194">BONK</text><text
            style="font-size:11px;fill:#fff;font-family:arial" x="92" y="255">BRETT</text><text
            style="font-size:11px;fill:#fff;font-family:arial" x="92" y="279">XTZ</text><text
            style="font-size:11px;fill:#fff;font-family:arial" x="194" y="255">PAXG</text><text
            style="font-size:11px;fill:#fff;font-family:arial" x="194" y="279">IOTX</text><text
            style="font-size:11px;fill:#fff;font-family:arial" x="92" y="339">XTZ</text><text
            style="font-size:11px;fill:#fff;font-family:arial" x="194" y="339">PAXG</text><text
            style="font-size:11px;fill:#fff;font-family:arial" x="92" y="400">PAXG</text>
        <g filter="url(#prefix__filter0_d_575_1231)" transform="translate(0 60)">
            <path
                d="M189.825 308L183 314.825l3.485 3.486 8.617 8.762-8.617 8.616-3.485 3.34 6.825 6.971 3.486-3.485 8.762-8.762 8.616 8.762 3.34 3.485 6.971-6.971-3.485-3.34-8.762-8.616 8.762-8.762 3.485-3.486-6.971-6.825-3.34 3.485-8.616 8.617-8.762-8.617z"
                fill="#ff2e47" />
        </g>
    </g>
    <defs id="prefix__defs70">
        <linearGradient id="prefix__paint0_linear_571_520" x1="150" y1="0" x2="150" y2="500"
            gradientUnits="userSpaceOnUse">
            <stop stop-color="#202738" id="prefix__stop67" />
            <stop offset="1" stop-color="#070816" id="prefix__stop68" />
        </linearGradient>
        <linearGradient id="paint1_linear_571_520" x1="108" y1="37" x2="109.881" y2="12.594"
            gradientUnits="userSpaceOnUse">
            <stop offset=".1" stop-color="#1DB954" id="prefix__stop69" />
            <stop offset="1" stop-color="#0062FF" id="prefix__stop70" />
        </linearGradient>
        <clipPath id="prefix__clip0_571_520">
            <rect width="300" height="500" rx="30" fill="#fff" id="prefix__rect70" />
        </clipPath>
        <filter id="prefix__filter0_d_571_520" x="177" y="371" width="50.835" height="42.65"
            filterUnits="userSpaceOnUse" color-interpolation-filters="sRGB">
            <feFlood flood-opacity="0" result="BackgroundImageFix" id="prefix__feFlood65" />
            <feColorMatrix in="SourceAlpha" type="matrix" values="0 0 0 0 0 0 0 0 0 0 0 0 0 0 0 0 0 0 127 0"
                result="hardAlpha" id="prefix__feColorMatrix65" />
            <feOffset dy="4" id="prefix__feOffset65" />
            <feGaussianBlur stdDeviation="2" id="prefix__feGaussianBlur65" />
            <feComposite in2="hardAlpha" operator="out" id="prefix__feComposite65" />
            <feColorMatrix type="matrix" values="0 0 0 0 0 0 0 0 0 0 0 0 0 0 0 0 0 0 0.5 0"
                id="prefix__feColorMatrix66" />
            <feBlend mode="normal" in2="BackgroundImageFix" result="effect1_dropShadow_571_520"
                id="prefix__feBlend66" />
            <feBlend mode="normal" in="SourceGraphic" in2="effect1_dropShadow_571_520" result="shape"
                id="prefix__feBlend67" />
        </filter>
    </defs>
</svg>